<?xml version="1.0" encoding="utf-8"?>
<!-- Generator: Adobe Illustrator 16.0.0, SVG Export Plug-In . SVG Version: 6.00 Build 0)  -->
<!DOCTYPE svg PUBLIC "-//W3C//DTD SVG 1.1//EN" "http://www.w3.org/Graphics/SVG/1.1/DTD/svg11.dtd">
<svg version="1.1" id="Calque_1" focusable="false" xmlns="http://www.w3.org/2000/svg" xmlns:xlink="http://www.w3.org/1999/xlink"
	 x="0px" y="0px" width="42px" height="49.539px" viewBox="596.5 83.167 42 49.539" enable-background="new 596.5 83.167 42 49.539"
	 xml:space="preserve">
<path fill="#FFFFFF" d="M616.234,109.92l-10.125-10.125c-0.7-0.7-0.7-1.832,0-2.524l1.683-1.683c0.7-0.7,1.831-0.7,2.524,0
	l7.177,7.177l7.177-7.177c0.7-0.7,1.832-0.7,2.524,0l1.698,1.675c0.7,0.7,0.7,1.832,0,2.524l-10.125,10.125
	C618.065,110.62,616.934,110.62,616.234,109.92L616.234,109.92z M618.766,124.215l10.125-10.125c0.7-0.7,0.7-1.832,0-2.524
	l-1.683-1.683c-0.7-0.7-1.832-0.7-2.524,0l-7.185,7.17l-7.177-7.177c-0.7-0.7-1.832-0.7-2.524,0l-1.69,1.683
	c-0.7,0.7-0.7,1.831,0,2.523l10.125,10.125C616.934,124.915,618.065,124.915,618.766,124.215z"/>
</svg>
