<?xml version="1.0" encoding="utf-8"?>
<!-- Generator: Adobe Illustrator 16.0.0, SVG Export Plug-In . SVG Version: 6.00 Build 0)  -->
<!DOCTYPE svg PUBLIC "-//W3C//DTD SVG 1.1//EN" "http://www.w3.org/Graphics/SVG/1.1/DTD/svg11.dtd">
<svg version="1.1" id="Calque_1" focusable="false" xmlns="http://www.w3.org/2000/svg" xmlns:xlink="http://www.w3.org/1999/xlink"
	 x="0px" y="0px" width="1000px" height="1000px" viewBox="452.5 36.5 1000 1000" enable-background="new 452.5 36.5 1000 1000"
	 xml:space="preserve">
<path fill="#E2B73B" d="M960,427.486c-62.14,0.023-112.495,50.417-112.472,112.557s50.416,112.495,112.556,112.472
	c62.124-0.023,112.473-50.391,112.473-112.514C1072.51,477.863,1022.137,427.509,960,427.486z M1223.061,341.001
	c-11.578-29.341-34.805-52.567-64.146-64.146c-44.297-17.487-149.766-13.563-198.914-13.563s-154.512-4.071-198.936,13.563
	c-29.341,11.578-52.567,34.805-64.146,64.146c-17.466,44.297-13.563,149.871-13.563,198.978s-3.902,154.554,13.647,198.998
	c11.578,29.342,34.805,52.568,64.146,64.146c44.297,17.486,149.766,13.563,198.935,13.563c49.17,0,154.491,4.07,198.914-13.563
	c29.342-11.578,52.568-34.805,64.146-64.146c17.613-44.297,13.563-149.871,13.563-198.978c0-49.105,4.05-154.532-13.563-198.977
	L1223.061,341.001z M960,712.969c-95.528,0-172.969-77.441-172.969-172.969c0-95.528,77.44-172.969,172.969-172.969
	s172.969,77.44,172.969,172.969c0.116,95.411-77.135,172.852-172.547,172.969C960.281,712.969,960.141,712.969,960,712.969z
	 M1140.099,400.149c-22.298,0.011-40.383-18.056-40.395-40.353c-0.012-22.298,18.055-40.383,40.353-40.395
	c22.297-0.012,40.383,18.055,40.395,40.353c0,0.007,0,0.014,0,0.021c0.093,22.251-17.869,40.364-40.12,40.458
	c-0.05,0-0.099,0-0.148,0L1140.099,400.149z M1331.25,67.5h-742.5c-55.919,0-101.25,45.331-101.25,101.25v742.5
	c0,55.918,45.331,101.25,101.25,101.25h742.5c55.919,0,101.25-45.332,101.25-101.25v-742.5
	C1432.5,112.831,1387.169,67.5,1331.25,67.5z M1295.138,679.219c-2.722,54.063-15.062,101.967-54.527,141.328
	c-39.467,39.36-87.328,51.953-141.328,54.527c-55.709,3.143-222.729,3.143-278.438,0c-54.063-2.722-101.799-15.082-141.328-54.527
	c-39.53-39.445-51.954-87.371-54.527-141.328c-3.144-55.73-3.144-222.771,0-278.438c2.721-54.063,14.913-101.968,54.527-141.328
	c39.614-39.361,87.476-51.807,141.328-54.38c55.708-3.143,222.729-3.143,278.438,0c54.063,2.721,101.946,15.082,141.328,54.527
	s51.954,87.37,54.527,141.434C1298.28,456.553,1298.28,623.447,1295.138,679.219z"/>
</svg>
