<?xml version="1.0" encoding="utf-8"?>
<!-- Generator: Adobe Illustrator 16.0.0, SVG Export Plug-In . SVG Version: 6.00 Build 0)  -->
<!DOCTYPE svg PUBLIC "-//W3C//DTD SVG 1.1//EN" "http://www.w3.org/Graphics/SVG/1.1/DTD/svg11.dtd">
<svg version="1.1" id="Calque_1" focusable="false" xmlns="http://www.w3.org/2000/svg" xmlns:xlink="http://www.w3.org/1999/xlink"
	 x="0px" y="0px" width="1005.101px" height="1014.101px" viewBox="452.269 26.268 1005.101 1014.101"
	 enable-background="new 452.269 26.268 1005.101 1014.101" xml:space="preserve">
<path fill="#E2B73B" d="M1365,67.5H554.789c-37.125,0-67.289,30.586-67.289,68.133v808.734c0,37.547,30.164,68.133,67.289,68.133
	H1365c37.125,0,67.5-30.586,67.5-68.133V135.633C1432.5,98.086,1402.125,67.5,1365,67.5z M773.109,877.5H633.047V426.516H773.32
	V877.5H773.109z M703.078,364.922c-44.93,0-81.211-36.492-81.211-81.211s36.281-81.211,81.211-81.211
	c44.719,0,81.211,36.492,81.211,81.211C784.289,328.641,748.008,364.922,703.078,364.922z M1298.133,877.5H1158.07V658.125
	c0-52.313-1.055-119.602-72.773-119.602c-72.984,0-84.164,56.953-84.164,115.805V877.5H861.07V426.516h134.367v61.594h1.898
	c18.773-35.438,64.547-72.773,132.68-72.773c141.75,0,168.117,93.445,168.117,214.945V877.5z"/>
</svg>
