<?xml version="1.0" encoding="utf-8"?>
<!-- Generator: Adobe Illustrator 16.0.0, SVG Export Plug-In . SVG Version: 6.00 Build 0)  -->
<!DOCTYPE svg PUBLIC "-//W3C//DTD SVG 1.1//EN" "http://www.w3.org/Graphics/SVG/1.1/DTD/svg11.dtd">
<svg version="1.1" id="Calque_1" focusable="false" xmlns="http://www.w3.org/2000/svg" xmlns:xlink="http://www.w3.org/1999/xlink"
	 x="0px" y="0px" width="1026.103px" height="1002.1px" viewBox="449.269 26.268 1026.103 1002.1"
	 enable-background="new 449.269 26.268 1026.103 1002.1" xml:space="preserve">
<path fill="#E2B73B" d="M1338,67.5H582c-52.102,0-94.5,42.398-94.5,94.5v756c0,52.102,42.398,94.5,94.5,94.5h756
	c52.102,0,94.5-42.398,94.5-94.5V162C1432.5,109.899,1390.102,67.5,1338,67.5z M1282.734,381.375
	c-2.953,66.445-49.359,157.57-139.219,272.953c-92.813,120.656-171.492,180.984-235.617,180.984
	c-39.867,0-73.406-36.703-101.039-110.32c-53.789-196.805-76.781-312.188-121.078-312.188c-5.063,0-22.992,10.758-53.578,32.063
	l-32.063-41.344c78.68-69.188,153.773-145.969,200.813-150.188c53.156-5.063,85.852,31.219,98.086,109.055
	c43.664,276.75,63.07,318.516,142.594,193.219c28.477-45.141,43.875-79.523,45.984-103.148c7.383-70.031-54.633-65.18-96.609-47.25
	c33.539-109.898,97.664-163.266,192.375-160.313C1253.625,246.797,1286.742,292.36,1282.734,381.375z"/>
</svg>
